<svg id="visual" viewBox="0 0 1280 720" width="1280" height="720" xmlns="http://www.w3.org/2000/svg" xmlns:xlink="http://www.w3.org/1999/xlink" version="1.1"><rect x="0" y="0" width="1280" height="720" fill="#F6FFF8"></rect><g transform="translate(668.5013598549652 342.49753948295194)"><path d="M142.9 -162.8C187.2 -133.1 226.5 -90 239.9 -38.7C253.2 12.6 240.5 72 214.5 130.3C188.6 188.5 149.3 245.6 95 268.6C40.7 291.6 -28.7 280.7 -82 250.4C-135.3 220.1 -172.4 170.6 -213.2 115.5C-254 60.5 -298.3 0 -302 -66.1C-305.6 -132.2 -268.5 -204 -211.4 -231.4C-154.3 -258.9 -77.1 -241.9 -13.9 -225.3C49.3 -208.7 98.6 -192.5 142.9 -162.8" fill="#002233"></path></g></svg>